{
  "accessors": [
    {
      "bufferView": 2,
      "componentType": 5126,
      "count": 1367,
      "max": [
        105.10551452636719,
        113.00153350830078,
        113.00159454345703
      ],
      "min": [
        -120.89762878417969,
        -113.00157165527344,
        -113.00159454345703
      ],
      "type": "VEC3"
    },
    {
      "bufferView": 2,
      "byteOffset": 16404,
      "componentType": 5126,
      "count": 1367,
      "max": [
        1.0,
        1.0,
        1.0
      ],
      "min": [
        -1.0,
        -1.0,
        -1.0
      ],
      "type": "VEC3"
    },
    {
      "bufferView": 1,
      "componentType": 5126,
      "count": 1367,
      "max": [
        1.0,
        1.0
      ],
      "min": [
        0.0,
        0.0
      ],
      "type": "VEC2"
    },
    {
      "bufferView": 0,
      "componentType": 5125,
      "count": 7560,
      "type": "SCALAR"
    },
    {
      "bufferView": 2,
      "byteOffset": 32808,
      "componentType": 5126,
      "count": 8764,
      "max": [
        14.468280792236328,
        21.241100311279297,
        16.44754981994629
      ],
      "min": [
        -28.946147918701172,
        -22.165117263793945,
        -8.536316871643066
      ],
      "type": "VEC3"
    },
    {
      "bufferView": 2,
      "byteOffset": 137976,
      "componentType": 5126,
      "count": 8764,
      "max": [
        0.9995347857475281,
        0.9978229999542236,
        0.9999943375587463
      ],
      "min": [
        -0.9999961256980896,
        -0.999941885471344,
        -0.9997086524963379
      ],
      "type": "VEC3"
    },
    {
      "bufferView": 3,
      "componentType": 5126,
      "count": 8764,
      "max": [
        0.9995988607406616,
        0.9993248581886292,
        0.9998616576194763,
        1.0
      ],
      "min": [
        -0.9046652913093567,
        -0.998742401599884,
        -0.9986444115638733,
        -1.0
      ],
      "type": "VEC4"
    },
    {
      "bufferView": 1,
      "byteOffset": 10936,
      "componentType": 5126,
      "count": 8764,
      "max": [
        0.9856730103492737,
        0.9900000095367432
      ],
      "min": [
        0.009999999776482582,
        0.009999999776482582
      ],
      "type": "VEC2"
    },
    {
      "bufferView": 0,
      "byteOffset": 30240,
      "componentType": 5125,
      "count": 50712,
      "type": "SCALAR"
    },
    {
      "bufferView": 2,
      "byteOffset": 243144,
      "componentType": 5126,
      "count": 9632,
      "max": [
        10.890454292297363,
        10.908208847045898,
        23.68462371826172
      ],
      "min": [
        -36.434513092041016,
        -8.656021118164063,
        -3.852440118789673
      ],
      "type": "VEC3"
    },
    {
      "bufferView": 2,
      "byteOffset": 358728,
      "componentType": 5126,
      "count": 9632,
      "max": [
        0.9999456405639648,
        0.9995620250701904,
        0.9992584586143494
      ],
      "min": [
        -0.9999974966049194,
        -0.9997598528862,
        -0.9999831318855286
      ],
      "type": "VEC3"
    },
    {
      "bufferView": 3,
      "byteOffset": 140224,
      "componentType": 5126,
      "count": 9632,
      "max": [
        0.9997645020484924,
        0.9998112320899963,
        0.9986605644226074,
        1.0
      ],
      "min": [
        -0.9007038474082947,
        -0.9997744560241699,
        -0.9999699592590332,
        -1.0
      ],
      "type": "VEC4"
    },
    {
      "bufferView": 1,
      "byteOffset": 81048,
      "componentType": 5126,
      "count": 9632,
      "max": [
        0.715254008769989,
        0.9900000095367432
      ],
      "min": [
        0.009999999776482582,
        0.29772600531578064
      ],
      "type": "VEC2"
    },
    {
      "bufferView": 0,
      "byteOffset": 233088,
      "componentType": 5125,
      "count": 55296,
      "type": "SCALAR"
    },
    {
      "bufferView": 2,
      "byteOffset": 474312,
      "componentType": 5126,
      "count": 8026,
      "max": [
        3.884805917739868,
        13.67517375946045,
        13.099270820617676
      ],
      "min": [
        -24.41225242614746,
        -17.586294174194336,
        -7.421824932098389
      ],
      "type": "VEC3"
    },
    {
      "bufferView": 2,
      "byteOffset": 570624,
      "componentType": 5126,
      "count": 8026,
      "max": [
        0.9997420907020569,
        0.9999363422393799,
        0.9999377727508545
      ],
      "min": [
        -0.9999974966049194,
        -0.9996341466903687,
        -0.9997086524963379
      ],
      "type": "VEC3"
    },
    {
      "bufferView": 3,
      "byteOffset": 294336,
      "componentType": 5126,
      "count": 8026,
      "max": [
        0.9997497797012329,
        0.9997071027755737,
        0.9981163740158081,
        1.0
      ],
      "min": [
        -0.9993610978126526,
        -0.9993881583213806,
        -0.9994187355041504,
        -1.0
      ],
      "type": "VEC4"
    },
    {
      "bufferView": 1,
      "byteOffset": 158104,
      "componentType": 5126,
      "count": 8026,
      "max": [
        0.715254008769989,
        0.9900000095367432
      ],
      "min": [
        0.009999999776482582,
        0.29772600531578064
      ],
      "type": "VEC2"
    },
    {
      "bufferView": 0,
      "byteOffset": 454272,
      "componentType": 5125,
      "count": 46080,
      "type": "SCALAR"
    }
  ],
  "asset": {
    "extras": {
      "author": "dark-minaz (https://sketchfab.com/dark-minaz)",
      "license": "CC-BY-4.0 (http://creativecommons.org/licenses/by/4.0/)",
      "source": "https://sketchfab.com/3d-models/floating-space-rocks-018829759661494080f08368bb742ca4",
      "title": "Floating Space Rocks"
    },
    "generator": "Sketchfab-10.86.0",
    "version": "2.0"
  },
  "bufferViews": [
    {
      "buffer": 0,
      "byteLength": 638592,
      "name": "floatBufferViews",
      "target": 34963
    },
    {
      "buffer": 0,
      "byteLength": 222312,
      "byteOffset": 638592,
      "byteStride": 8,
      "name": "floatBufferViews",
      "target": 34962
    },
    {
      "buffer": 0,
      "byteLength": 666936,
      "byteOffset": 860904,
      "byteStride": 12,
      "name": "floatBufferViews",
      "target": 34962
    },
    {
      "buffer": 0,
      "byteLength": 422752,
      "byteOffset": 1527840,
      "byteStride": 16,
      "name": "floatBufferViews",
      "target": 34962
    }
  ],
  "buffers": [
    {
      "byteLength": 1950592,
      "uri": "scene.bin"
    }
  ],
  "images": [
    {
      "uri": "textures/Rocks_baseColor.jpeg"
    },
    {
      "uri": "textures/Rocks_metallicRoughness.png"
    },
    {
      "uri": "textures/Rocks_emissive.jpeg"
    },
    {
      "uri": "textures/Rocks_normal.png"
    },
    {
      "uri": "textures/Sphere_baseColor.png"
    }
  ],
  "materials": [
    {
      "doubleSided": true,
      "emissiveFactor": [
        1.0,
        1.0,
        1.0
      ],
      "emissiveTexture": {
        "index": 2
      },
      "name": "Rocks",
      "normalTexture": {
        "index": 3
      },
      "occlusionTexture": {
        "index": 1
      },
      "pbrMetallicRoughness": {
        "baseColorTexture": {
          "index": 0
        },
        "metallicRoughnessTexture": {
          "index": 1
        }
      }
    },
    {
      "emissiveFactor": [
        0.7467212666216734,
        0.7467212666216734,
        0.7467212666216734
      ],
      "emissiveTexture": {
        "index": 4
      },
      "name": "Sphere",
      "pbrMetallicRoughness": {
        "baseColorTexture": {
          "index": 4
        }
      }
    }
  ],
  "meshes": [
    {
      "name": "Object_0",
      "primitives": [
        {
          "attributes": {
            "NORMAL": 1,
            "POSITION": 0,
            "TEXCOORD_0": 2
          },
          "indices": 3,
          "material": 1,
          "mode": 4
        }
      ]
    },
    {
      "name": "Object_1",
      "primitives": [
        {
          "attributes": {
            "NORMAL": 5,
            "POSITION": 4,
            "TANGENT": 6,
            "TEXCOORD_0": 7
          },
          "indices": 8,
          "material": 0,
          "mode": 4
        }
      ]
    },
    {
      "name": "Object_2",
      "primitives": [
        {
          "attributes": {
            "NORMAL": 10,
            "POSITION": 9,
            "TANGENT": 11,
            "TEXCOORD_0": 12
          },
          "indices": 13,
          "material": 0,
          "mode": 4
        }
      ]
    },
    {
      "name": "Object_3",
      "primitives": [
        {
          "attributes": {
            "NORMAL": 15,
            "POSITION": 14,
            "TANGENT": 16,
            "TEXCOORD_0": 17
          },
          "indices": 18,
          "material": 0,
          "mode": 4
        }
      ]
    }
  ],
  "nodes": [
    {
      "children": [
        1
      ],
      "matrix": [
        1.0,
        0.0,
        0.0,
        0.0,
        0.0,
        2.220446049250313e-16,
        -1.0,
        0.0,
        0.0,
        1.0,
        2.220446049250313e-16,
        0.0,
        0.0,
        0.0,
        0.0,
        1.0
      ],
      "name": "Sketchfab_model"
    },
    {
      "children": [
        2,
        3,
        4,
        5
      ],
      "name": "Floatingrocks.obj.cleaner.materialmerger.gles"
    },
    {
      "mesh": 0,
      "name": "Object_2"
    },
    {
      "mesh": 1,
      "name": "Object_3"
    },
    {
      "mesh": 2,
      "name": "Object_4"
    },
    {
      "mesh": 3,
      "name": "Object_5"
    }
  ],
  "samplers": [
    {
      "magFilter": 9729,
      "minFilter": 9987,
      "wrapS": 10497,
      "wrapT": 10497
    }
  ],
  "scene": 0,
  "scenes": [
    {
      "name": "Sketchfab_Scene",
      "nodes": [
        0
      ]
    }
  ],
  "textures": [
    {
      "sampler": 0,
      "source": 0
    },
    {
      "sampler": 0,
      "source": 1
    },
    {
      "sampler": 0,
      "source": 2
    },
    {
      "sampler": 0,
      "source": 3
    },
    {
      "sampler": 0,
      "source": 4
    }
  ]
}
